<svg xmlns="http://www.w3.org/2000/svg" viewBox="0 0 512 512">
  <rect width="512" height="512" fill="#09090b"/>
  <path d="M144 144h224v224H144z" fill="none"/>
  <path d="M352 128h-32V96c0-17.67-14.33-32-32-32H224c-17.67 0-32 14.33-32 32v32h-32c-17.67 0-32 14.33-32 32v224c0 17.67 14.33 32 32 32h192c17.67 0 32-14.33 32-32V160c0-17.67-14.33-32-32-32zm-64-32h-64V96h64v32zm64 256H160V160h192v192z" fill="#22c55e"/>
  <path d="M200 200h112v16H200zm0 48h112v16H200zm0 48h112v16H200z" fill="#22c55e" opacity="0.5"/>
</svg>
